<?xml version="1.0" encoding="UTF-8"?>
<svg width="152px" height="152px" viewBox="0 0 152 152" version="1.1" xmlns="http://www.w3.org/2000/svg"
     xmlns:xlink="http://www.w3.org/1999/xlink">
    <title>FB254230-054B-4C3D-9890-2BC98397AB46</title>
    <defs>
        <circle id="path-1" cx="74.6662015" cy="74.6662015" r="74.6662015"></circle>
    </defs>
    <g id="Screens" stroke="none" stroke-width="1" fill="none" fill-rule="evenodd">
        <g id="Home" transform="translate(-644.000000, -24.000000)">
            <g id="header-desktop" transform="translate(46.000000, 24.000000)">
                <g id="hiway-logo" transform="translate(598.000000, 0.000000)">
                    <g id="Group-2" transform="translate(2.000000, 2.000000)">
                        <mask id="mask-2" fill="white">
                            <use xlink:href="#path-1"></use>
                        </mask>
                        <use id="Oval" fill="#ECECEC" fill-rule="nonzero" xlink:href="#path-1"></use>
                        <g id="Group" mask="url(#mask-2)" fill-rule="nonzero">
                            <g transform="translate(-1.000000, 2.000000)" id="Rectangle">
                                <rect fill="#ECAC4C" x="5.68434189e-14" y="0" width="162.511437" height="32"></rect>
                                <rect fill="#EB8C4A" x="-1.70530257e-13" y="29.0756956" width="162.511437"
                                      height="32"></rect>
                                <rect fill="#EA6D4B" x="-1.70530257e-13" y="57.9700151" width="162.511437"
                                      height="34"></rect>
                                <rect fill="#E84C4C" x="-1.70530257e-13" y="86.8949106" width="162.511437"
                                      height="32"></rect>
                                <rect fill="#0C577C" x="5.68434189e-14" y="115.809614" width="162.511437"
                                      height="31"></rect>
                            </g>
                        </g>
                    </g>
                    <path d="M76,0 C117.973641,0 152,34.026359 152,76 C152,117.973641 117.973641,152 76,152 C34.026359,152 0,117.973641 0,76 C0,34.026359 34.026359,0 76,0 Z M76,5 C36.7877828,5 5,36.7877828 5,76 C5,115.212217 36.7877828,147 76,147 C115.212217,147 147,115.212217 147,76 C147,36.7877828 115.212217,5 76,5 Z"
                          id="Oval-Copy-2" fill="#ECECEC" fill-rule="nonzero"></path>
                    <path d="M35.39,70.35 C34.9896041,70.442086 34.5980927,70.5692436 34.22,70.73 L37.3,55.41 C37.4554105,54.516836 37.1225185,53.6086079 36.4267211,53.0274365 C35.7309236,52.446265 34.777929,52.2804439 33.926721,52.5924365 C33.0755131,52.904429 32.4554105,53.646836 32.3,54.54 L22.3,103.54 C22.0884925,104.414072 22.3770126,105.333489 23.05,105.93 C23.7267188,106.504451 24.6344172,106.726744 25.5,106.53 L25.75,106.46 C26.509987,106.213388 27.076525,105.574119 27.23,104.79 L32,81.52 C32.94,77.72 34.46,75.52 36.51,75.08 C38.85,74.53 39.07,75.47 39.21,76.08 C39.3269528,76.9815485 39.276097,77.8969543 39.06,78.78 L34.55,100.41 C34.3228072,101.31064 34.6157995,102.262865 35.31,102.88 C36.058003,103.548448 37.1015437,103.77613 38.06,103.48 C38.8052222,103.233819 39.3522285,102.594361 39.48,101.82 L44,79.8 C44.4035886,78.2291949 44.4378166,76.586251 44.1,75 C43.19,71.07 39.86,69.31 35.39,70.35 Z M125,84.05 C125.399454,83.9502999 125.790616,83.8199125 126.17,83.66 L123.12,99 C122.966376,99.893164 123.300918,100.800439 123.997609,101.380064 C124.6943,101.959688 125.647294,102.123603 126.497609,101.810064 C127.347924,101.496524 127.966376,100.753164 128.12,99.86 L138.05,50.86 C138.263829,49.9858522 137.974936,49.0652468 137.3,48.47 C136.623281,47.8955494 135.715583,47.6732559 134.85,47.87 L134.6,47.94 C133.840013,48.1866116 133.273475,48.8258808 133.12,49.61 L128.42,72.86 C127.48,76.66 125.97,78.86 123.92,79.31 C121.58,79.86 121.36,78.91 121.21,78.31 C121.102972,77.4076279 121.157148,76.4934163 121.37,75.61 L125.85,54 C126.077193,53.0993596 125.784201,52.1471348 125.09,51.53 C124.345858,50.8543683 123.300026,50.6223837 122.34,50.92 C121.598625,51.1718861 121.054004,51.8085553 120.92,52.58 L116.4,74.58 C115.991855,76.1674814 115.961033,77.8284691 116.31,79.43 C117.21,83.33 120.55,85.09 125,84.05 Z M53.31,63 C54.0647992,63.5668196 55.0383913,63.7548999 55.95,63.51 C57.4618001,63.109691 58.6092754,61.8766412 58.9,60.34 C59.1945995,59.1383803 58.7465074,57.8766472 57.76,57.13 C56.7040205,56.2913301 55.2347525,56.2072575 54.09,56.92 C52.732161,57.6412142 51.9427168,59.1095804 52.09,60.64 C52.1218935,61.5698902 52.5697738,62.4362818 53.31,63 L53.31,63 Z M54.31,66.54 C53.6450565,66.4338954 52.9653055,66.5983207 52.4223677,66.9966003 C51.8794299,67.3948799 51.5184696,67.993883 51.42,68.66 L45.42,98.1 C45.1413311,98.9340076 45.3625744,99.8539138 45.99,100.47 C46.7138152,101.099495 47.6999283,101.334818 48.63,101.1 L48.89,101.02 C49.6386343,100.815479 50.209978,100.209391 50.37,99.45 L56.37,69.51 C56.4972822,68.836211 56.3456188,68.1396153 55.9497399,67.5797294 C55.5538609,67.0198435 54.9476767,66.6446261 54.27,66.54 L54.31,66.54 Z M90.31,58.1 C88.9305023,57.8299627 87.5913108,58.722757 87.31,60.1 L82.7,82.62 L82.7,82.81 C82.7,82.88 81.7,90 77.7,90 C76.9774259,90.0673753 76.2577612,89.8442792 75.7,89.38 C75.3688781,88.8452009 75.2246693,88.2156066 75.29,87.59 C75.35,87.27 75.4,86.96 75.44,86.66 L80.04,64.21 C80.2853516,63.2962856 80.0067663,62.3217432 79.3155547,61.6757573 C78.624343,61.0297713 77.633205,60.8176677 76.7381558,61.1241939 C75.8431065,61.4307201 75.1900812,62.2058977 75.04,63.14 L70.44,85.59 C70.349506,85.9953415 70.286033,86.4062458 70.25,86.82 C69.83,88.74 68.53,93.11 65.38,93.11 C64.6576589,93.1751551 63.9388248,92.9523166 63.38,92.49 C62.9539007,91.6639346 62.8470984,90.7098342 63.08,89.81 L67.7,67.27 C67.8786328,66.376836 67.567199,65.456219 66.8830127,64.8549365 C66.1988264,64.2536539 65.2458318,64.063055 64.3830127,64.3549365 C63.5201936,64.6468179 62.8786328,65.376836 62.7,66.27 L58,88.7 C57.9,89.12 57.08,92.85 59.26,95.62 C60.7385249,97.3796991 62.966535,98.3303167 65.26,98.18 C68.4043093,98.1433315 71.2901121,96.4316731 72.83,93.69 C74.2331199,94.6528092 75.909623,95.1368206 77.61,95.07 C84.35,95.07 87.1,87.88 87.68,83.55 L92.28,61.1 C92.5573284,59.7289342 91.678357,58.3903991 90.31,58.1 Z M112.57,53 C112.308603,52.9548355 112.041397,52.9548355 111.78,53 C110.825861,53.1436636 110.043808,53.8318694 109.78,54.76 C108.771041,54.2195309 107.632863,53.9669869 106.49,54.03 C105.816356,54.0333596 105.145314,54.1138846 104.49,54.27 C104.040516,54.3782318 103.599382,54.5185926 103.17,54.69 C99.56,56.11 97.17,59.63 96.04,65.44 L95.28,69 L94.43,73 L93.72,76.37 L93,80.15 C92.5953576,81.7389921 92.5747907,83.4014839 92.94,85 C93.8,88.56 96.67,90.18 99.36,89.42 C100.83,89 103.82,86.09 103.79,85.42 C103.662546,86.6861064 104.499006,87.8485704 105.74,88.13 C106.4104,88.2774098 107.111919,88.1483195 107.68593,87.7719187 C108.259941,87.3955179 108.657965,86.8035971 108.79,86.13 L110.88,74.59 L114.66,55.89 C114.876245,54.515925 113.942669,53.224999 112.57,53 Z M100.92,66.72 C101.84,62.09 103.41,59.48 105.59,58.97 C107.94,58.42 108.16,59.36 108.3,59.97 C108.304378,59.9998403 108.304378,60.0301597 108.3,60.06 C108.260574,60.6631733 108.190483,61.26395 108.09,61.86 L107.52,65 L106.7,69.08 L106.13,71.94 C105.59,74.46 104.7,78.94 104.13,79.94 C103.88678,80.370264 103.579988,80.7613384 103.22,81.1 C102.538481,81.714278 101.778526,82.235486 100.96,82.65 C98.53,83.97 98.14,81.4 98.81,76.86 L100.23,70 L100.92,66.72 Z"
                          id="Shape" fill="#033D56" fill-rule="nonzero" opacity="0.300000012"></path>
                    <path d="M31.39,69.35 C30.9896041,69.442086 30.5980927,69.5692436 30.22,69.73 L33.3,54.41 C33.4554105,53.516836 33.1225185,52.6086079 32.4267211,52.0274365 C31.7309236,51.446265 30.777929,51.2804439 29.926721,51.5924365 C29.0755131,51.904429 28.4554105,52.646836 28.3,53.54 L18.3,102.54 C18.0884925,103.414072 18.3770126,104.333489 19.05,104.93 C19.7267188,105.504451 20.6344172,105.726744 21.5,105.53 L21.75,105.46 C22.509987,105.213388 23.076525,104.574119 23.23,103.79 L28,80.52 C28.94,76.72 30.46,74.52 32.51,74.08 C34.85,73.53 35.07,74.47 35.21,75.08 C35.3269528,75.9815485 35.276097,76.8969543 35.06,77.78 L30.54,99.43 C30.3128072,100.33064 30.6057995,101.282865 31.3,101.9 C32.048003,102.568448 33.0915437,102.79613 34.05,102.5 C34.7952222,102.253819 35.3422285,101.614361 35.47,100.84 L40,78.8 C40.4035886,77.2291949 40.4378166,75.586251 40.1,74 C39.19,70.07 35.86,68.31 31.39,69.35 Z M121,83.05 C121.399454,82.9502999 121.790616,82.8199125 122.17,82.66 L119.12,98 C118.966376,98.893164 119.300918,99.8004391 119.997609,100.380064 C120.6943,100.959688 121.647294,101.123603 122.497609,100.810064 C123.347924,100.496524 123.966376,99.753164 124.12,98.86 L134.05,49.86 C134.263829,48.9858522 133.974936,48.0652468 133.3,47.47 C132.623281,46.8955494 131.715583,46.6732559 130.85,46.87 L130.6,46.94 C129.840013,47.1866116 129.273475,47.8258808 129.12,48.61 L124.42,71.86 C123.48,75.66 121.97,77.86 119.92,78.31 C117.58,78.86 117.36,77.91 117.21,77.31 C117.102972,76.4076279 117.157148,75.4934163 117.37,74.61 L121.85,53 C122.077193,52.0993596 121.784201,51.1471348 121.09,50.53 C120.345858,49.8543683 119.300026,49.6223837 118.34,49.92 C117.598625,50.1718861 117.054004,50.8085553 116.92,51.58 L112.4,73.58 C111.991855,75.1674814 111.961033,76.8284691 112.31,78.43 C113.21,82.33 116.55,84.09 121,83.05 Z M49.31,62 C50.0647992,62.5668196 51.0383913,62.7548999 51.95,62.51 C53.4618001,62.109691 54.6092754,60.8766412 54.9,59.34 C55.1945995,58.1383803 54.7465074,56.8766472 53.76,56.13 C52.7040205,55.2913301 51.2347525,55.2072575 50.09,55.92 C48.732161,56.6412142 47.9427168,58.1095804 48.09,59.64 C48.1218935,60.5698902 48.5697738,61.4362818 49.31,62 L49.31,62 Z M50.31,65.54 C49.6450565,65.4338954 48.9653055,65.5983207 48.4223677,65.9966003 C47.8794299,66.3948799 47.5184696,66.993883 47.42,67.66 L41.42,97.1 C41.1438373,97.9358974 41.3690346,98.8561002 42,99.47 C42.7238152,100.099495 43.7099283,100.334818 44.64,100.1 L44.9,100.02 C45.6486343,99.8154789 46.219978,99.2093913 46.38,98.45 L52.38,68.51 C52.5071481,67.8347152 52.3541514,67.13676 51.9561817,66.5765847 C51.5582121,66.0164094 50.9495072,65.6422065 50.27,65.54 L50.31,65.54 Z M86.31,57.1 C84.9305023,56.8299627 83.5913108,57.722757 83.31,59.1 L78.7,81.62 L78.7,81.81 C78.7,81.88 77.7,89 73.7,89 C72.9774259,89.0673753 72.2577612,88.8442792 71.7,88.38 C71.3688781,87.8452009 71.2246693,87.2156066 71.29,86.59 C71.35,86.27 71.4,85.96 71.44,85.66 L76.04,63.21 C76.2853516,62.2962856 76.0067663,61.3217432 75.3155547,60.6757573 C74.624343,60.0297713 73.633205,59.8176677 72.7381558,60.1241939 C71.8431065,60.4307201 71.1900812,61.2058977 71.04,62.14 L66.44,84.59 C66.349506,84.9953415 66.286033,85.4062458 66.25,85.82 C65.83,87.74 64.53,92.11 61.38,92.11 C60.6576589,92.1751551 59.9388248,91.9523166 59.38,91.49 C58.9539007,90.6639346 58.8470984,89.7098342 59.08,88.81 L63.7,66.27 C63.8786328,65.376836 63.567199,64.456219 62.8830127,63.8549364 C62.1988264,63.2536539 61.2458318,63.063055 60.3830127,63.3549364 C59.5201936,63.6468179 58.8786328,64.376836 58.7,65.27 L54,87.7 C53.9,88.12 53.08,91.85 55.26,94.62 C56.7385249,96.3796991 58.966535,97.3303167 61.26,97.18 C64.4043093,97.1433315 67.2901121,95.4316731 68.83,92.69 C70.2331199,93.6528092 71.909623,94.1368206 73.61,94.07 C80.35,94.07 83.1,86.88 83.68,82.55 L88.28,60.1 C88.5573284,58.7289342 87.678357,57.3903991 86.31,57.1 Z M108.57,52 C108.308603,51.9548355 108.041397,51.9548355 107.78,52 C106.825861,52.1436636 106.043808,52.8318694 105.78,53.76 C104.771041,53.2195309 103.632863,52.9669869 102.49,53.03 C101.816356,53.0333596 101.145314,53.1138846 100.49,53.27 C100.040516,53.3782318 99.5993824,53.5185926 99.17,53.69 C95.56,55.11 93.17,58.63 92.04,64.44 L91.28,68 L90.43,72 L89.72,75.37 L89,79.15 C88.5953576,80.7389921 88.5747907,82.4014839 88.94,84 C89.8,87.56 92.67,89.18 95.36,88.42 C96.83,88 99.82,85.09 99.79,84.42 C99.6625462,85.6861064 100.499006,86.8485704 101.74,87.13 C102.4104,87.2774098 103.111919,87.1483195 103.68593,86.7719187 C104.259941,86.3955179 104.657965,85.8035971 104.79,85.13 L106.88,73.59 L110.66,54.89 C110.876245,53.515925 109.942669,52.224999 108.57,52 L108.57,52 Z M96.92,65.72 C97.84,61.09 99.41,58.48 101.59,57.97 C103.94,57.42 104.16,58.36 104.3,58.97 C104.304378,58.9998403 104.304378,59.0301597 104.3,59.06 C104.260574,59.6631733 104.190483,60.26395 104.09,60.86 L103.52,64 L102.7,68.08 L102.13,70.94 C101.59,73.46 100.7,77.94 100.13,78.94 C99.8867795,79.370264 99.5799884,79.7613384 99.22,80.1 C98.5384806,80.714278 97.7785257,81.235486 96.96,81.65 C94.53,82.97 94.14,80.4 94.81,75.86 L96.23,69 L96.92,65.72 Z"
                          id="Shape" fill="#FFFFFF" fill-rule="nonzero"></path>
                </g>
            </g>
        </g>
    </g>
</svg>
